# xmcd
#
# Track frame offsets: 
#        150
#        14222
#        29482
#        44847
#        60112
#        76862
#        86372
#        101620
#        111960
#        128960
#        139685
#        157755
#
# Disc length: 2304 seconds
#
# Revision: 0
# Processed by: cddbd v1.5.1PL0 Copyright (c) Steve Scherf et al.
# Submitted via: ExactAudioCopy v0.95a5
#
DISCID=9608fe0c
DTITLE=Ulli Kron - Keys On Fire
DYEAR=1991
DGENRE=Blues
TTITLE0=Keys On Fire
TTITLE1=Walkin' On The Central Square
TTITLE2=Hangover Blues
TTITLE3=The Devil's Dance
TTITLE4=South Balcony Blues
TTITLE5=Crown St. Glide
TTITLE6=M.G. Jump
TTITLE7=Stone Pine Boogie
TTITLE8=Leavin'
TTITLE9=What's That?
TTITLE10=Drummer's Delight Boogie
TTITLE11=Gee, Baby, Ain't  I Good To You?
EXTD=
EXTT0=
EXTT1=
EXTT2=
EXTT3=
EXTT4=
EXTT5=
EXTT6=
EXTT7=
EXTT8=
EXTT9=
EXTT10=
EXTT11=
PLAYORDER=
